<svg width="91" height="117" viewBox="0 0 91 117" fill="none" xmlns="http://www.w3.org/2000/svg">
<circle cx="47.7524" cy="82.8911" r="33.3366" fill="#FFF5E4"/>
<path d="M72.5156 71.8047C69.3875 71.8047 66.8281 74.3641 66.8281 77.4922C66.8281 80.6203 69.3875 83.1797 72.5156 83.1797C75.6438 83.1797 78.2031 80.6203 78.2031 77.4922C78.2031 74.3641 75.6438 71.8047 72.5156 71.8047ZM72.5156 80.3359C70.9516 80.3359 69.6719 79.0563 69.6719 77.4922C69.6719 75.9281 70.9516 74.6484 72.5156 74.6484C74.0797 74.6484 75.3594 75.9281 75.3594 77.4922C75.3594 79.0563 74.0797 80.3359 72.5156 80.3359Z" fill="#FF9401"/>
<path d="M18.4844 71.8047C15.3562 71.8047 12.7969 74.3641 12.7969 77.4922C12.7969 80.6203 15.3562 83.1797 18.4844 83.1797C21.6125 83.1797 24.1719 80.6203 24.1719 77.4922C24.1719 74.3641 21.6125 71.8047 18.4844 71.8047ZM18.4844 80.3359C16.9203 80.3359 15.6406 79.0563 15.6406 77.4922C15.6406 75.9281 16.9203 74.6484 18.4844 74.6484C20.0484 74.6484 21.3281 75.9281 21.3281 77.4922C21.3281 79.0563 20.0484 80.3359 18.4844 80.3359Z" fill="#FF9401"/>
<path d="M1.42188 78.9141H7.21602C7.92695 84.5127 12.708 88.8672 18.4844 88.8672C24.2607 88.8672 29.0596 84.5127 29.7527 78.9141H61.2295C61.9404 84.5127 66.7215 88.8672 72.4979 88.8672C78.2742 88.8672 83.073 84.5127 83.7662 78.9141H89.5781C90.3602 78.9141 91 78.2742 91 77.4922V68.9609V53.3203C91 53.2848 90.9822 53.2492 90.9822 53.2137C90.9822 53.1248 90.9467 53.0359 90.9289 52.9471C90.8934 52.8582 90.8756 52.7693 90.8223 52.6805C90.8045 52.6449 90.8045 52.6094 90.7867 52.5916L79.4117 34.1072C79.3762 34.0539 79.3406 34.0361 79.3051 34.0006C79.2518 33.9295 79.1807 33.8584 79.1096 33.7873C79.0385 33.734 78.9674 33.6807 78.8963 33.6451C78.8252 33.6096 78.7363 33.5562 78.6475 33.5385C78.5586 33.5029 78.452 33.4852 78.3631 33.4852C78.3098 33.4852 78.2564 33.4496 78.2031 33.4496H59.7188C58.9367 33.4496 58.2969 34.0895 58.2969 34.8715V53.3203H53.2492C53.7469 52.485 54.0312 51.5252 54.0312 50.4766H55.4531C56.2352 50.4766 56.875 49.8367 56.875 49.0547C56.875 48.2727 56.2352 47.6328 55.4531 47.6328H54.0312V44.8068C54.0312 32.01 44.5936 21.417 32.3121 19.533C32.5609 18.9998 32.7031 18.3955 32.7031 17.7734C32.7031 15.4273 30.7836 13.5078 28.4375 13.5078C26.0914 13.5078 24.1719 15.4273 24.1719 17.7734C24.1719 18.4133 24.3141 18.9998 24.5629 19.533C12.2814 21.417 2.84375 32.01 2.84375 44.8068V47.6328H1.42188C0.639844 47.6328 0 48.2727 0 49.0547C0 49.8367 0.639844 50.4766 1.42188 50.4766H2.84375C2.84375 51.5074 3.1459 52.485 3.62578 53.3203H1.42188C0.639844 53.3203 0 53.9602 0 54.7422V68.9609V77.4922C0 78.2742 0.639844 78.9141 1.42188 78.9141ZM59.7188 66.1172C60.5008 66.1172 61.1406 65.4773 61.1406 64.6953V36.2578H77.4033L88.1562 53.7291V68.9609V76.0703H83.784C83.073 70.4717 78.292 66.1172 72.5156 66.1172C66.7393 66.1172 61.9404 70.4717 61.2473 76.0703H29.7527C29.0418 70.4717 24.2607 66.1172 18.4844 66.1172C12.708 66.1172 7.90918 70.4717 7.21602 76.0703H2.84375V68.9609V61.8516H58.2969V64.6953C58.2969 65.4773 58.9367 66.1172 59.7188 66.1172ZM18.4844 86.0234C13.7744 86.0234 9.95312 82.2021 9.95312 77.4922C9.95312 72.7822 13.7744 68.9609 18.4844 68.9609C23.1943 68.9609 27.0156 72.7822 27.0156 77.4922C27.0156 82.2021 23.1943 86.0234 18.4844 86.0234ZM72.5156 86.0234C67.8057 86.0234 63.9844 82.2021 63.9844 77.4922C63.9844 72.7822 67.8057 68.9609 72.5156 68.9609C77.2256 68.9609 81.0469 72.7822 81.0469 77.4922C81.0469 82.2021 77.2256 86.0234 72.5156 86.0234ZM58.2969 59.0078H2.84375V56.1641H8.4957C8.51348 56.1641 8.51348 56.1641 8.53125 56.1641C8.53125 56.1641 8.53125 56.1641 8.54902 56.1641H48.326C48.326 56.1641 48.326 56.1641 48.3438 56.1641C48.3615 56.1641 48.3615 56.1641 48.3793 56.1641H58.2969V59.0078ZM28.4375 16.3516C29.2195 16.3516 29.8594 16.9914 29.8594 17.7734C29.8594 18.5555 29.2195 19.1953 28.4375 19.1953C27.6555 19.1953 27.0156 18.5555 27.0156 17.7734C27.0156 16.9914 27.6555 16.3516 28.4375 16.3516ZM28.4375 22.0568C40.9855 22.0568 51.1875 32.2588 51.1875 44.8068V47.6328H5.6875V44.8068C5.6875 32.2588 15.8895 22.0568 28.4375 22.0568ZM5.6875 50.4766H51.1875C51.1875 52.0406 49.9256 53.3025 48.3793 53.3203H8.4957C6.94941 53.3025 5.6875 52.0406 5.6875 50.4766Z" fill="#2E2E2E"/>
<path d="M63.9844 51.8984H82.4688C82.6287 51.8984 82.7887 51.8628 82.9486 51.7917C83.002 51.774 83.0375 51.7562 83.073 51.7384C83.1086 51.7207 83.1619 51.7029 83.1975 51.6851C83.2508 51.6496 83.2686 51.614 83.3041 51.5785C83.3752 51.5251 83.4463 51.4541 83.5174 51.383C83.5707 51.3119 83.624 51.2408 83.6596 51.1697C83.6951 51.0986 83.7484 51.0097 83.7662 50.9208C83.8018 50.832 83.8195 50.7253 83.8195 50.6365C83.8195 50.5832 83.8551 50.5298 83.8551 50.4765C83.8551 50.441 83.8373 50.4054 83.8373 50.3699C83.8373 50.281 83.8018 50.1921 83.784 50.0855C83.7484 49.9966 83.7307 49.9078 83.6773 49.8189C83.6596 49.7833 83.6596 49.7478 83.6418 49.73L76.6391 38.355C76.6035 38.3017 76.568 38.2839 76.5324 38.2306C76.4791 38.1595 76.4258 38.0884 76.3547 38.0351C76.2836 37.964 76.1947 37.9285 76.1236 37.8751C76.0525 37.8396 75.9814 37.8041 75.9104 37.7685C75.8037 37.733 75.6971 37.7152 75.5904 37.6974C75.5371 37.6974 75.5016 37.6619 75.4482 37.6619H69.6719C69.6719 37.6619 69.6719 37.6619 69.6541 37.6619C69.6363 37.6619 69.6541 37.6619 69.6363 37.6619H63.9844C63.2023 37.6619 62.5625 38.3017 62.5625 39.0837V50.4587C62.5625 51.2585 63.2023 51.8984 63.9844 51.8984ZM74.684 40.5234L79.9272 49.0546H71.0938V40.5234H74.684ZM68.25 49.0546H65.4063V40.5234H68.25V49.0546Z" fill="#2E2E2E"/>
<path d="M63.9844 60.4297H65.4062C66.1883 60.4297 66.8281 59.7898 66.8281 59.0078C66.8281 58.2258 66.1883 57.5859 65.4062 57.5859H63.9844C63.2023 57.5859 62.5625 58.2258 62.5625 59.0078C62.5625 59.7898 63.2023 60.4297 63.9844 60.4297Z" fill="#FF9401"/>
<path d="M28.4199 27.7266C37.8398 27.7266 45.5002 35.3869 45.5002 44.8068C45.5002 45.5889 46.14 46.2287 46.9221 46.2287C47.7041 46.2287 48.3439 45.5889 48.3439 44.8068C48.3439 33.8229 39.4039 24.8828 28.4199 24.8828C27.6379 24.8828 26.998 25.5227 26.998 26.3047C26.998 27.0867 27.6379 27.7266 28.4199 27.7266Z" fill="#FF9401"/>
<path d="M13.2234 17.3647C13.5078 17.6491 13.8633 17.7735 14.2365 17.7735C14.6098 17.7735 14.9652 17.6313 15.2496 17.3647C16.5471 16.0672 18.2356 12.6725 15.3563 9.0645C13.4367 6.68286 14.9297 4.88774 15.2674 4.55005C15.8184 3.99907 15.8184 3.09263 15.2674 2.54165C14.7164 1.99067 13.81 1.99067 13.259 2.54165C11.9615 3.83911 10.2731 7.23384 13.1524 10.8418C15.0719 13.2413 13.5611 15.0186 13.259 15.3563C12.6547 15.9073 12.6547 16.7959 13.2234 17.3647Z" fill="#FF9401"/>
<path d="M41.6431 17.3647C41.9275 17.6491 42.283 17.7735 42.6562 17.7735C43.0294 17.7735 43.3849 17.6313 43.6693 17.3647C44.9668 16.0672 46.6552 12.6725 43.7759 9.0645C41.8564 6.68286 43.3494 4.88774 43.6871 4.55005C44.238 3.99907 44.238 3.09263 43.6871 2.54165C43.1361 1.99067 42.2296 1.99067 41.6787 2.54165C40.3812 3.83911 38.6927 7.23384 41.572 10.8418C43.4916 13.2413 41.9808 15.0186 41.6787 15.3563C41.0921 15.9073 41.0921 16.7959 41.6431 17.3647Z" fill="#FF9401"/>
<path d="M29.4505 2.54165C28.8995 1.99067 27.9931 1.99067 27.4421 2.54165C26.1446 3.83911 24.4562 7.23384 27.3355 10.8418C27.6198 11.1973 28.0286 11.375 28.4552 11.375C28.7751 11.375 29.0773 11.2684 29.3439 11.0551C29.9482 10.5575 30.0548 9.6688 29.5571 9.0645C27.6376 6.68286 29.1306 4.88774 29.4683 4.55005C30.0015 3.99907 30.0015 3.1104 29.4505 2.54165Z" fill="#FF9401"/>
</svg>
